<svg width="18" height="18" viewBox="0 0 18 18" fill="none" xmlns="http://www.w3.org/2000/svg">
<path d="M17.5202 2.72921C17.6702 2.584 17.7899 2.41027 17.8723 2.21817C17.9546 2.02606 17.998 1.81943 17.9999 1.61032C18.0018 1.4012 17.9622 1.1938 17.8834 1.00022C17.8045 0.806634 17.688 0.63074 17.5407 0.482799C17.3934 0.334859 17.2181 0.217836 17.0252 0.138557C16.8323 0.0592791 16.6256 0.0193341 16.4171 0.0210519C16.2087 0.0227698 16.0027 0.0661166 15.8111 0.148563C15.6195 0.23101 15.4462 0.350906 15.3013 0.501254L9.00889 6.81133L2.71857 0.501254C2.57484 0.346522 2.40151 0.222416 2.20893 0.136339C2.01635 0.0502612 1.80846 0.00397609 1.59766 0.000245095C1.38686 -0.0034859 1.17747 0.0354137 0.981983 0.114623C0.786495 0.193831 0.608914 0.311727 0.459832 0.461277C0.310751 0.610826 0.193225 0.788964 0.114264 0.985066C0.0353029 1.18117 -0.00347499 1.39122 0.000244328 1.60268C0.00396364 1.81414 0.0501038 2.02268 0.135912 2.21587C0.22172 2.40906 0.345437 2.58293 0.499685 2.72711L6.78582 9.03928L0.495498 15.3494C0.21818 15.6479 0.0672051 16.0428 0.0743814 16.4508C0.0815576 16.8588 0.246325 17.2481 0.533969 17.5366C0.821614 17.8252 1.20968 17.9905 1.6164 17.9977C2.02313 18.0049 2.41677 17.8534 2.71438 17.5752L9.00889 11.2651L15.2992 17.5773C15.5968 17.8555 15.9905 18.007 16.3972 17.9998C16.8039 17.9926 17.192 17.8273 17.4796 17.5387C17.7673 17.2502 17.932 16.8609 17.9392 16.4529C17.9464 16.0449 17.7954 15.65 17.5181 15.3515L11.232 9.03928L17.5202 2.72921Z" fill="#F8F8F8"/>
</svg>
